<svg width="48" height="48" viewBox="0 0 48 48" fill="none" xmlns="http://www.w3.org/2000/svg">
<rect width="48" height="48" fill="#E5E5E5"/>
<g id="&#208;&#161;&#208;&#191;&#208;&#184;&#209;&#129;&#208;&#190;&#208;&#186;" clip-path="url(#clip0_3030_558)">
<rect width="1440" height="937" transform="translate(-120 -19)" fill="white"/>
<g id="Header">
<g id="Frame" filter="url(#filter0_d_3030_558)">
<rect x="-120" y="-19" width="1440" height="85.2912" fill="white"/>
</g>
<g id="Group 1">
<path id="Vector" d="M29.4322 34.0151C35.0338 31.0603 37.1442 24 34.148 18.2995C31.1518 12.599 24.1693 10.3763 18.5678 13.3311C12.9662 16.286 10.8558 23.3463 13.852 29.0468C16.8482 34.7473 23.8306 36.97 29.4322 34.0151Z" stroke="#49C2E8" stroke-width="5" stroke-miterlimit="10"/>
<path id="Vector_2" d="M42.2247 34.5381C36.4668 44.5533 23.6222 47.9788 13.5654 42.1737C3.50866 36.3686 0.0174377 23.477 5.77534 13.4619C11.5332 3.44675 24.3778 0.0212038 34.4346 5.82632C44.4913 11.6314 47.9826 24.523 42.2247 34.5381Z" stroke="#49C2E8" stroke-width="5" stroke-miterlimit="10"/>
</g>
</g>
</g>
<defs>
<filter id="filter0_d_3030_558" x="-184" y="-76" width="1568" height="213.291" filterUnits="userSpaceOnUse" color-interpolation-filters="sRGB">
<feFlood flood-opacity="0" result="BackgroundImageFix"/>
<feColorMatrix in="SourceAlpha" type="matrix" values="0 0 0 0 0 0 0 0 0 0 0 0 0 0 0 0 0 0 127 0" result="hardAlpha"/>
<feOffset dy="7"/>
<feGaussianBlur stdDeviation="32"/>
<feColorMatrix type="matrix" values="0 0 0 0 0 0 0 0 0 0 0 0 0 0 0 0 0 0 0.07 0"/>
<feBlend mode="normal" in2="BackgroundImageFix" result="effect1_dropShadow_3030_558"/>
<feBlend mode="normal" in="SourceGraphic" in2="effect1_dropShadow_3030_558" result="shape"/>
</filter>
<clipPath id="clip0_3030_558">
<rect width="1440" height="937" fill="white" transform="translate(-120 -19)"/>
</clipPath>
</defs>
</svg>
